<?xml version="1.0" encoding="UTF-8"?>
<svg id="_레이어_1" data-name="레이어_1" xmlns="http://www.w3.org/2000/svg" version="1.1" viewBox="0 0 254.81 125.63">
  <!-- Generator: Adobe Illustrator 29.4.0, SVG Export Plug-In . SVG Version: 2.1.0 Build 152)  -->
  <defs>
    <style>
      .st0 {
        fill: #231815;
        font-family: AdobeMyungjoStd-Medium-KSCpc-EUC-H, 'Adobe Myungjo Std';
        font-size: 234.44px;
        font-weight: 500;
      }

      .st1 {
        fill: #0b2c4c;
      }

      .st2 {
        fill: #e67a28;
      }
    </style>
  </defs>
  <g>
    <g>
      <path class="st2" d="M130.7,25.66c-26.38-2.34-43.4-6.18-43.4-6.18,0,0-.66,3.05-3.45,7.89,2.28.04,4.59.06,6.93.06,14.54,0,28.09-.74,39.91-1.77Z"/>
      <path class="st2" d="M179.56,27.32c-2.83-4.61-4-7.85-4-7.85,0,0-17.93,3.84-44.87,6.18,11.58,1.03,24.95,1.77,39.49,1.77,3.18,0,6.3-.04,9.37-.1Z"/>
      <path class="st2" d="M240.67,60.34s-16.65,1.53-37.47-10.2c-12.22-6.89-19.61-16.25-23.63-22.81-3.07.07-6.2.1-9.37.1-14.54,0-27.92-.74-39.49-1.77-11.82,1.03-25.37,1.77-39.91,1.77-2.34,0-4.65-.02-6.93-.06-3.18,5.52-9.13,13.36-20.02,21.64-20.44,15.52-46.56,10.6-46.56,10.6,0,0,3.79,7.19,9.08,12.49s20.06,7.95,20.06,7.95h168.51s12.11-2.65,18.55-7.95,7.19-11.75,7.19-11.75Z"/>
    </g>
    <path class="st1" d="M57.94,101.61h22.51s-1.41-4.54-1.41-8.33.53-7.57.53-7.57h10.02s0,3.79,1.06,7.95c1.06,4.16,2.11,7.95,2.11,7.95h29.02s1.58-2.78,1.58-6.56v-7.82h21.81s.18,1.77,1.23,6.43c1.06,4.67,2.11,7.95,2.11,7.95h26.91s-.88-3.53-1.58-6.31-.7-7.07-.7-7.07h15.65s.18,4.04.7,6.56,1.58,6.81,1.58,6.81h19.06l3.8-19.02H50.2"/>
  </g>
  <text class="st0" transform="translate(732.41 -2232.04)"><tspan x="0" y="0">Nolseoul</tspan></text>
</svg>